<?xml version="1.0" standalone="no"?>
<!DOCTYPE svg PUBLIC "-//W3C//DTD SVG 20010904//EN"
 "http://www.w3.org/TR/2001/REC-SVG-20010904/DTD/svg10.dtd">
<svg version="1.0" xmlns="http://www.w3.org/2000/svg"
 width="500.000000pt" height="186.000000pt" viewBox="0 0 500.000000 186.000000"
 preserveAspectRatio="xMidYMid meet">

<g transform="translate(0.000000,186.000000) scale(0.100000,-0.100000)"
fill="#000000" stroke="none">
<path d="M929 1770 c-19 -10 -41 -26 -48 -34 -13 -15 -469 -989 -466 -993 1
-2 26 20 56 48 256 240 613 409 976 463 48 7 87 17 86 22 -3 19 -197 430 -212
451 -35 49 -86 63 -227 63 -107 -1 -135 -4 -165 -20z"/>
<path d="M2485 1078 c-82 -177 -151 -328 -153 -335 -3 -11 11 -13 63 -11 l67
3 86 193 c48 105 89 192 93 192 6 0 79 -159 79 -172 0 -5 -18 -8 -39 -8 -41 0
-37 5 -78 -97 -4 -9 19 -13 84 -15 l88 -3 24 -47 23 -48 68 0 68 0 -157 335
c-86 184 -158 334 -161 334 -3 0 -72 -144 -155 -321z"/>
<path d="M4349 1065 l-157 -335 68 0 68 0 23 48 24 47 88 3 c65 2 88 6 84 15
-41 102 -37 97 -78 97 -21 0 -39 3 -39 8 0 13 73 172 79 172 4 0 45 -87 93
-192 l86 -193 67 -3 c52 -2 66 0 63 11 -5 23 -303 656 -308 656 -3 0 -75 -150
-161 -334z"/>
<path d="M3670 1060 l0 -330 60 0 60 0 0 275 0 275 160 0 160 0 0 55 0 55
-220 0 -220 0 0 -330z"/>
<path d="M3030 1150 l0 -230 65 0 65 0 0 230 0 230 -65 0 -65 0 0 -230z"/>
<path d="M1615 1208 c-448 -36 -865 -223 -1146 -515 -134 -139 -184 -221 -335
-551 l-33 -73 228 3 228 3 35 27 c24 18 57 67 104 155 81 149 202 335 270 413
92 106 240 247 314 299 63 45 198 117 316 169 47 20 173 50 249 59 l70 7 -55
7 c-70 9 -108 8 -245 -3z"/>
<path d="M3877 1114 c-4 -4 -7 -27 -7 -51 l0 -43 121 0 120 0 -3 48 -3 47
-111 3 c-60 1 -113 -1 -117 -4z"/>
<path d="M3034 831 c-2 -2 -4 -26 -4 -53 l0 -48 251 0 250 0 -3 50 -3 51 -243
2 c-134 1 -246 0 -248 -2z"/>
<path d="M3344 459 l-72 -154 26 -3 c19 -3 31 4 45 22 14 19 28 26 53 26 19 0
34 3 34 6 0 16 -23 44 -35 44 -19 0 -18 7 5 50 l18 35 10 -25 c6 -14 24 -55
41 -92 28 -62 33 -68 61 -68 16 0 30 2 30 4 0 2 -33 72 -73 156 l-72 152 -71
-153z"/>
<path d="M2340 575 l0 -25 135 0 135 0 0 25 0 25 -135 0 -135 0 0 -25z"/>
<path d="M2830 449 l0 -150 26 3 27 3 -2 123 -1 122 60 0 c49 0 61 -3 70 -20
8 -14 8 -26 -1 -41 -9 -17 -8 -25 6 -38 15 -15 18 -14 36 8 28 34 24 77 -10
112 -28 28 -33 29 -120 29 l-91 0 0 -151z"/>
<path d="M3732 493 c27 -60 59 -128 70 -153 l20 -45 15 30 c14 29 12 35 -39
153 -52 119 -54 122 -85 122 l-32 0 51 -107z"/>
<path d="M3875 534 c-22 -52 -26 -72 -19 -93 5 -14 13 -26 18 -26 4 0 28 42
51 93 l44 92 -33 0 c-31 0 -35 -4 -61 -66z"/>
<path d="M4182 578 c3 -22 7 -23 103 -23 96 0 100 1 103 23 3 22 2 22 -103 22
-105 0 -106 0 -103 -22z"/>
<path d="M4600 495 l0 -105 25 0 25 0 0 105 0 105 -25 0 -25 0 0 -105z"/>
<path d="M2450 404 l0 -105 28 3 27 3 3 103 3 102 -31 0 -30 0 0 -106z"/>
<path d="M4182 393 l3 -88 100 0 c96 0 100 1 103 23 3 21 0 22 -72 22 l-76 0
0 45 0 45 70 0 c63 0 70 2 70 20 0 19 -7 20 -100 20 l-101 0 3 -87z"/>
<path d="M2919 461 l-27 -6 62 -77 c54 -69 65 -78 94 -78 17 0 32 3 32 6 0 7
-118 152 -128 157 -4 2 -19 1 -33 -2z"/>
<path d="M4600 325 l0 -26 113 3 c108 3 112 4 115 26 3 22 2 22 -112 22 l-116
0 0 -25z"/>
</g>
</svg>
